Coordinates
version=1
nRows=8
nColumns=42
inDegrees=yes

Units are S.I. units (second, meters, Newtons, ...)
If the header above contains a line with 'inDegrees', this indicates whether rotational values are in degrees (yes) or radians (no).

endheader
time	pelvis_tilt	pelvis_list	pelvis_rotation	pelvis_tx	pelvis_ty	pelvis_tz	hip_flexion_r	hip_adduction_r	hip_rotation_r	knee_angle_r	knee_adduction_r	knee_angle_r_beta	ankle_angle_r	subtalar_angle_r	mtp_angle_r	hip_flexion_l	hip_adduction_l	hip_rotation_l	knee_angle_l	knee_adduction_l	knee_angle_l_beta	ankle_angle_l	subtalar_angle_l	mtp_angle_l	lumbar_extension	lumbar_bending	lumbar_rotation	arm_flex_r	arm_add_r	arm_rot_r	elbow_flex_r	pro_sup_r	wrist_flex_r	wrist_dev_r	arm_flex_l	arm_add_l	arm_rot_l	elbow_flex_l	pro_sup_l	wrist_flex_l	wrist_dev_l
      0.90000000	     14.34772265	     -2.35673412	     -3.29032217	     -0.08108082	      0.97250998	     -0.10336689	    -27.88155383	      6.81234529	     -5.27353387	      3.17389734	     -0.66843845	      0.05539496	     13.47700588	      9.19620732	     -7.71702607	     10.73283540	     -3.19968607	     -2.84798095	     16.24988674	      2.42648668	      0.28361403	     -0.74993963	      2.66477155	     -7.71702607	    -33.69384636	      3.96718792	     12.06194743	      1.57782392	    -27.00432424	     -0.50989584	     76.51994525	     90.00000001	      0.00000000	      0.00000000	    -10.15639292	    -17.55022627	      2.69511223	     55.88185821	     90.00000001	      0.00000000	      0.00000000
      0.91000000	     14.09869098	     -2.80628067	     -3.85781986	     -0.06769087	      0.96941838	     -0.10256143	    -28.34296798	      7.02673690	     -4.90969191	      3.63637870	     -0.72725772	      0.06346678	     14.12738057	      9.23467151	     -7.70914057	     11.11694192	     -3.58832208	     -4.52487884	     13.71901149	      2.18316931	      0.23944192	     -1.02742777	      4.48534986	     -7.70914057	    -33.53230704	      4.17857097	     12.55166275	      1.99980769	    -27.31033655	     -0.00784486	     76.52202231	     90.00000001	      0.00000000	      0.00000000	    -10.81936138	    -17.23914020	      2.32853366	     55.96833381	     90.00000001	      0.00000000	      0.00000000
      0.92000000	     13.81108543	     -3.22238261	     -4.45016424	     -0.05410808	      0.96631841	     -0.10178761	    -28.70688343	      7.16711615	     -4.73423350	      4.23809361	     -0.81454255	      0.07396869	     14.83224882	      9.56327185	     -7.70026574	     11.54437841	     -3.93894294	     -6.26237390	     11.65104262	      2.00014515	      0.20334905	     -1.08345352	      6.11187355	     -7.70026574	    -33.32020377	      4.35543533	     13.04376374	      2.39998258	    -27.59645413	      0.45746562	     76.44109885	     90.00000001	      0.00000000	      0.00000000	    -11.45731385	    -16.92316273	      1.97267994	     56.04082665	     90.00000001	      0.00000000	      0.00000000
      0.93000000	     13.49774839	     -3.59436665	     -5.06092414	     -0.04041497	      0.96327190	     -0.10105153	    -28.96023277	      7.20811049	     -4.80230817	      5.05636380	     -0.91049601	      0.08825020	     15.61576717	     10.35798245	     -7.69024566	     11.99671981	     -4.25734861	     -7.92229778	     10.05915097	      1.92046716	      0.17556530	     -0.93745637	      7.46582710	     -7.69024566	    -33.07934494	      4.48993619	     13.50378737	      2.78396668	    -27.78303085	      0.88147416	     76.31316801	     90.00000001	      0.00000000	      0.00000000	    -12.06651157	    -16.61239379	      1.68318725	     56.07198668	     90.00000001	      0.00000000	      0.00000000
      0.94000000	     13.09539608	     -4.01269635	     -5.64822613	     -0.02672962	      0.96029065	     -0.10026776	    -29.12752266	      7.31733373	     -4.68038696	      5.85940165	     -1.07150466	      0.10226585	     16.20248113	     10.83915598	     -7.68646308	     12.48571021	     -4.65343424	     -9.02096365	      8.86184170	      2.01730803	      0.15466832	     -0.67211184	      7.85601299	     -7.68646308	    -32.76803041	      4.67145333	     14.02821821	      3.10202559	    -27.91773788	      1.15213457	     76.06577780	     90.00000001	      0.00000000	      0.00000000	    -12.55142178	    -16.36924975	      1.59496889	     56.04487176	     90.00000001	      0.00000000	      0.00000000
      0.95000000	     12.59801588	     -4.28865036	     -5.83624648	     -0.01270868	      0.95721371	     -0.10026065	    -29.28384583	      7.35626485	     -4.75698145	      6.45871771	     -1.02829408	      0.11272589	     16.30107042	     10.95858568	     -7.68527522	     13.26576021	     -4.72324317	     -9.63713663	      8.41489356	      1.93800152	      0.14686760	     -0.49467219	      7.76008472	     -7.68527522	    -32.28822307	      4.96017281	     14.13129108	      3.22737815	    -27.92990251	      1.16493549	     76.01003873	     90.00000001	      0.00000000	      0.00000000	    -13.01089559	    -16.20330878	      1.63371522	     55.93118245	     90.00000001	      0.00000000	      0.00000000
      0.96000000	     12.57229317	     -4.21222436	     -6.84538574	      0.00168198	      0.95503285	     -0.09914565	    -29.33415367	      6.55315143	     -6.49132683	      8.29209846	     -1.38366664	      0.14472442	     18.10341971	     15.28435238	     -7.66954723	     13.31399093	     -4.58612389	    -12.14434692	      8.31359763	      1.66754540	      0.14509965	      0.33225968	      9.72511487	     -7.66954723	    -32.26329266	      4.40283586	     14.63727963	      3.64110662	    -28.03922061	      1.74621733	     75.53436949	     90.00000001	      0.00000000	      0.00000000	    -13.46860959	    -15.91853858	      1.21767886	     55.89993393	     90.00000001	      0.00000000	      0.00000000
      0.97000000	     12.28594663	     -4.25644904	     -7.41564305	      0.01607589	      0.95271925	     -0.09855817	    -29.40404229	      6.08598892	     -6.99739325	      9.50651046	     -1.52698339	      0.16591991	     18.61758313	     16.89423583	     -7.65802129	     13.73246113	     -4.50662731	    -13.16401803	      8.72390561	      1.51868167	      0.15226088	      0.66725387	      9.83948597	     -7.65802129	    -31.96842643	      4.21304404	     14.90394744	      3.81697383	    -27.99037581	      1.90487637	     75.21214727	     90.00000001	      0.00000000	      0.00000000	    -13.77378243	    -15.75657126	      1.17557626	     55.70389413	     90.00000001	      0.00000000	      0.00000000
